<?xml version="1.0" encoding="UTF-8" standalone="no"?>
<!DOCTYPE svg PUBLIC "-//W3C//DTD SVG 1.1//EN"
 "http://www.w3.org/Graphics/SVG/1.1/DTD/svg11.dtd">
<!-- Generated by graphviz version 14.1.2 (0)
 -->
<!-- Title: welcome Pages: 1 -->
<svg width="1136pt" height="1862pt"
 viewBox="0.00 0.00 1136.00 1862.00" xmlns="http://www.w3.org/2000/svg" xmlns:xlink="http://www.w3.org/1999/xlink">
<g id="graph0" class="graph" transform="scale(1 1) rotate(0) translate(36 1825.55)">
<title>welcome</title>
<polygon fill="#0a0a0f" stroke="none" points="-36,36 -36,-1825.55 1100.25,-1825.55 1100.25,36 -36,36"/>
<!-- __inputs__ -->
<g id="node1" class="node">
<title>__inputs__</title>
<path fill="#1e293b" stroke="#475569" d="M136.43,-1072.8C136.43,-1072.8 79.58,-1072.8 79.58,-1072.8 73.58,-1072.8 67.58,-1066.8 67.58,-1060.8 67.58,-1060.8 67.58,-1042.4 67.58,-1042.4 67.58,-1036.4 73.58,-1030.4 79.58,-1030.4 79.58,-1030.4 136.43,-1030.4 136.43,-1030.4 142.43,-1030.4 148.43,-1036.4 148.43,-1042.4 148.43,-1042.4 148.43,-1060.8 148.43,-1060.8 148.43,-1066.8 142.43,-1072.8 136.43,-1072.8"/>
<text xml:space="preserve" text-anchor="start" x="90.38" y="-1057.1" font-family="Helvetica,sans-Serif" font-size="10.00" fill="#94a3b8">↓ Inputs</text>
<text xml:space="preserve" text-anchor="start" x="78.38" y="-1048.05" font-family="Helvetica,sans-Serif" font-size="9.00" fill="#94a3b8">reviewer_style</text>
<text xml:space="preserve" text-anchor="start" x="83.62" y="-1039.05" font-family="Helvetica,sans-Serif" font-size="9.00" fill="#94a3b8">team_name</text>
</g>
<!-- open&#45;pr -->
<g id="node10" class="node">
<title>open&#45;pr</title>
<polygon fill="#1a1a2e" stroke="#333333" points="654.12,-960.4 587.88,-960.4 587.88,-924.4 654.12,-924.4 654.12,-960.4"/>
<text xml:space="preserve" text-anchor="start" x="595.88" y="-942.1" font-family="Helvetica,sans-Serif" font-weight="bold" font-size="14.00" fill="white">open&#45;pr</text>
<text xml:space="preserve" text-anchor="start" x="601.5" y="-931.9" font-family="Helvetica,sans-Serif" font-size="10.00" fill="#94a3b8">sub_flow</text>
</g>
<!-- __inputs__&#45;&gt;open&#45;pr -->
<g id="edge1" class="edge">
<title>__inputs__&#45;&gt;open&#45;pr</title>
<path fill="none" stroke="#475569" stroke-dasharray="5,2" d="M148.68,-1042.1C243.4,-1022.31 478.05,-973.27 576.45,-952.71"/>
<polygon fill="#475569" stroke="#475569" points="576.93,-956.19 586,-950.71 575.5,-949.33 576.93,-956.19"/>
<text xml:space="preserve" text-anchor="middle" x="420.71" y="-991.9" font-family="Helvetica,sans-Serif" font-size="10.00" fill="#94a3b8">team_name</text>
</g>
<!-- await&#45;review -->
<g id="node11" class="node">
<title>await&#45;review</title>
<polygon fill="#1a1a2e" stroke="#333333" points="396.88,-854.4 299.12,-854.4 299.12,-818.4 396.88,-818.4 396.88,-854.4"/>
<text xml:space="preserve" text-anchor="start" x="307.12" y="-836.1" font-family="Helvetica,sans-Serif" font-weight="bold" font-size="14.00" fill="white">await&#45;review</text>
<text xml:space="preserve" text-anchor="start" x="315" y="-825.9" font-family="Helvetica,sans-Serif" font-size="10.00" fill="#94a3b8">LLM simulation</text>
</g>
<!-- __inputs__&#45;&gt;await&#45;review -->
<g id="edge2" class="edge">
<title>__inputs__&#45;&gt;await&#45;review</title>
<path fill="none" stroke="#475569" stroke-dasharray="5,2" d="M131.01,-1030.16C175.3,-990.81 272.24,-904.7 320.12,-862.17"/>
<polygon fill="#475569" stroke="#475569" points="322.18,-865.02 327.33,-855.76 317.53,-859.79 322.18,-865.02"/>
<text xml:space="preserve" text-anchor="middle" x="279.42" y="-938.9" font-family="Helvetica,sans-Serif" font-size="10.00" fill="#94a3b8">reviewer_style</text>
</g>
<!-- merge -->
<g id="node17" class="node">
<title>merge</title>
<polygon fill="#1a1a2e" stroke="#333333" points="368.12,-272.4 211.88,-272.4 211.88,-236.4 368.12,-236.4 368.12,-272.4"/>
<text xml:space="preserve" text-anchor="start" x="269.38" y="-254.1" font-family="Helvetica,sans-Serif" font-weight="bold" font-size="14.00" fill="white">merge</text>
<text xml:space="preserve" text-anchor="start" x="219.88" y="-243.9" font-family="Helvetica,sans-Serif" font-size="10.00" fill="#94a3b8">printf &#39;{&quot;action&quot;: &quot;merged&quot;, &quot;pr&quot;:..</text>
</g>
<!-- __inputs__&#45;&gt;merge -->
<g id="edge3" class="edge">
<title>__inputs__&#45;&gt;merge</title>
<path fill="none" stroke="#475569" stroke-dasharray="5,2" d="M67.17,-1030.7C36.59,-1012.62 0,-982.76 0,-943.4 0,-943.4 0,-943.4 0,-373.4 0,-329.53 115.31,-294.07 200.5,-273.85"/>
<polygon fill="#475569" stroke="#475569" points="201.1,-277.31 210.05,-271.63 199.51,-270.49 201.1,-277.31"/>
<text xml:space="preserve" text-anchor="middle" x="25.5" y="-661.9" font-family="Helvetica,sans-Serif" font-size="10.00" fill="#94a3b8">team_name</text>
</g>
<!-- pick&#45;feature -->
<g id="node2" class="node">
<title>pick&#45;feature</title>
<polygon fill="#1a1a2e" stroke="#333333" points="771.43,-1789.55 460.55,-1789.55 380.57,-1725.55 691.45,-1725.55 771.43,-1789.55"/>
<text xml:space="preserve" text-anchor="start" x="537.75" y="-1757.25" font-family="Helvetica,sans-Serif" font-weight="bold" font-size="14.00" fill="white">pick&#45;feature</text>
<text xml:space="preserve" text-anchor="start" x="489.75" y="-1747.05" font-family="Helvetica,sans-Serif" font-size="10.00" fill="#94a3b8">Welcome to Stepwise — workflow orc..</text>
</g>
<!-- plan -->
<g id="node3" class="node">
<title>plan</title>
<polygon fill="#1a1a2e" stroke="#333333" points="484.38,-1655.55 281.62,-1655.55 281.62,-1619.55 484.38,-1619.55 484.38,-1655.55"/>
<text xml:space="preserve" text-anchor="start" x="369.12" y="-1637.25" font-family="Helvetica,sans-Serif" font-weight="bold" font-size="14.00" fill="white">plan</text>
<text xml:space="preserve" text-anchor="start" x="289.62" y="-1627.05" font-family="Helvetica,sans-Serif" font-size="10.00" fill="#94a3b8">revision=$STEPWISE_ATTEMPTcase &quot;$..</text>
</g>
<!-- pick&#45;feature&#45;&gt;plan -->
<g id="edge4" class="edge">
<title>pick&#45;feature&#45;&gt;plan</title>
<path fill="none" stroke="#60a5fa" d="M524.53,-1725.08C492.03,-1705.21 450.73,-1679.96 421.15,-1661.88"/>
<polygon fill="#60a5fa" stroke="#60a5fa" points="423.25,-1659.06 412.89,-1656.83 419.6,-1665.03 423.25,-1659.06"/>
<text xml:space="preserve" text-anchor="middle" x="488.71" y="-1687.05" font-family="Helvetica,sans-Serif" font-size="10.00" fill="#60a5fa">feature</text>
</g>
<!-- approve&#45;plan -->
<g id="node4" class="node">
<title>approve&#45;plan</title>
<polygon fill="#1a1a2e" stroke="#333333" points="690.99,-1548.8 411.03,-1548.8 339.01,-1484.8 618.97,-1484.8 690.99,-1548.8"/>
<text xml:space="preserve" text-anchor="start" x="472.62" y="-1516.5" font-family="Helvetica,sans-Serif" font-weight="bold" font-size="14.00" fill="white">approve&#45;plan</text>
<text xml:space="preserve" text-anchor="start" x="438.12" y="-1506.3" font-family="Helvetica,sans-Serif" font-size="10.00" fill="#94a3b8">Feature: $feature — $plan (revisio..</text>
</g>
<!-- pick&#45;feature&#45;&gt;approve&#45;plan -->
<g id="edge5" class="edge">
<title>pick&#45;feature&#45;&gt;approve&#45;plan</title>
<path fill="none" stroke="#60a5fa" d="M568.03,-1725.34C557.23,-1683.07 537.91,-1607.47 525.81,-1560.12"/>
<polygon fill="#60a5fa" stroke="#60a5fa" points="529.22,-1559.31 523.35,-1550.49 522.44,-1561.04 529.22,-1559.31"/>
<text xml:space="preserve" text-anchor="middle" x="564.56" y="-1634.05" font-family="Helvetica,sans-Serif" font-size="10.00" fill="#60a5fa">feature</text>
</g>
<!-- pick&#45;feature&#45;&gt;open&#45;pr -->
<g id="edge18" class="edge">
<title>pick&#45;feature&#45;&gt;open&#45;pr</title>
<path fill="none" stroke="#60a5fa" d="M685.12,-1725.17C722.92,-1707.09 756,-1679.56 756,-1638.55 756,-1638.55 756,-1638.55 756,-1050.6 756,-1003.27 704.49,-973.51 665.1,-957.67"/>
<polygon fill="#60a5fa" stroke="#60a5fa" points="666.38,-954.41 655.78,-954.11 663.88,-960.95 666.38,-954.41"/>
<text xml:space="preserve" text-anchor="middle" x="771" y="-1340.3" font-family="Helvetica,sans-Serif" font-size="10.00" fill="#60a5fa">feature</text>
</g>
<!-- plan&#45;&gt;approve&#45;plan -->
<g id="edge6" class="edge">
<title>plan&#45;&gt;approve&#45;plan</title>
<path fill="none" stroke="#60a5fa" d="M373.55,-1619.27C368.12,-1606.8 363.84,-1590.07 372,-1577.8 378.79,-1567.59 387.69,-1559.11 397.74,-1552.07"/>
<polygon fill="#60a5fa" stroke="#60a5fa" points="399.43,-1555.14 405.98,-1546.82 395.67,-1549.24 399.43,-1555.14"/>
<text xml:space="preserve" text-anchor="middle" x="384" y="-1580.67" font-family="Helvetica,sans-Serif" font-size="10.00" fill="#60a5fa">tasks</text>
</g>
<!-- plan&#45;&gt;approve&#45;plan -->
<g id="edge7" class="edge">
<title>plan&#45;&gt;approve&#45;plan</title>
<path fill="none" stroke="#60a5fa" d="M400.33,-1619.27C412.39,-1607.4 428.94,-1591.39 444,-1577.8 451.74,-1570.81 460.1,-1563.53 468.27,-1556.55"/>
<polygon fill="#60a5fa" stroke="#60a5fa" points="470.51,-1559.23 475.87,-1550.09 465.98,-1553.9 470.51,-1559.23"/>
<text xml:space="preserve" text-anchor="middle" x="453" y="-1580.67" font-family="Helvetica,sans-Serif" font-size="10.00" fill="#60a5fa">plan</text>
</g>
<!-- plan&#45;&gt;approve&#45;plan -->
<g id="edge8" class="edge">
<title>plan&#45;&gt;approve&#45;plan</title>
<path fill="none" stroke="#60a5fa" d="M424.63,-1619.26C439.39,-1611.84 455.44,-1602.17 468,-1590.55 477.82,-1581.47 486.49,-1569.91 493.62,-1558.7"/>
<polygon fill="#60a5fa" stroke="#60a5fa" points="496.52,-1560.67 498.7,-1550.3 490.53,-1557.05 496.52,-1560.67"/>
<text xml:space="preserve" text-anchor="middle" x="496.16" y="-1580.67" font-family="Helvetica,sans-Serif" font-size="10.00" fill="#60a5fa">revision</text>
</g>
<!-- write&#45;code -->
<g id="node5" class="node">
<title>write&#45;code</title>
<polygon fill="#1a1a2e" stroke="#7c3aed" points="350.12,-1414.8 241.88,-1414.8 241.88,-1378.8 350.12,-1378.8 350.12,-1414.8"/>
<text xml:space="preserve" text-anchor="start" x="261.88" y="-1396.5" font-family="Helvetica,sans-Serif" font-weight="bold" font-size="14.00" fill="white">write&#45;code</text>
<text xml:space="preserve" text-anchor="start" x="249.88" y="-1386.3" font-family="Helvetica,sans-Serif" font-size="10.00" fill="#c084fc">🔗 for&#45;each (5 steps)</text>
</g>
<!-- plan&#45;&gt;write&#45;code -->
<g id="edge10" class="edge">
<title>plan&#45;&gt;write&#45;code</title>
<path fill="none" stroke="#60a5fa" d="M356.32,-1619.32C334.96,-1603.79 306.56,-1578.83 294,-1548.8 277.22,-1508.7 283.02,-1457.19 289.18,-1425.88"/>
<polygon fill="#60a5fa" stroke="#60a5fa" points="292.54,-1426.93 291.2,-1416.42 285.69,-1425.47 292.54,-1426.93"/>
<text xml:space="preserve" text-anchor="middle" x="306" y="-1513.3" font-family="Helvetica,sans-Serif" font-size="10.00" fill="#60a5fa">tasks</text>
</g>
<!-- plan&#45;&gt;write&#45;code -->
<g id="edge12" class="edge">
<title>plan&#45;&gt;write&#45;code</title>
<path fill="none" stroke="#c084fc" d="M333.26,-1619.16C302.44,-1605.39 265.66,-1582.75 249,-1548.8 228.69,-1507.43 255.22,-1455.4 275.89,-1424.47"/>
<polygon fill="#c084fc" stroke="#c084fc" points="278.63,-1426.66 281.47,-1416.46 272.88,-1422.67 278.63,-1426.66"/>
<text xml:space="preserve" text-anchor="middle" x="261" y="-1513.3" font-family="Helvetica,sans-Serif" font-size="10.00" fill="#c084fc">tasks</text>
</g>
<!-- approve&#45;plan&#45;&gt;plan -->
<g id="edge9" class="edge">
<title>approve&#45;plan&#45;&gt;plan</title>
<path fill="none" stroke="#f59e0b" stroke-width="2.5" d="M527.49,-1549.29C530.84,-1563.11 531.49,-1578.82 523,-1590.55 516.35,-1599.74 507.8,-1607.13 498.21,-1613.06"/>
<polygon fill="#f59e0b" stroke="#f59e0b" stroke-width="2.5" points="496.56,-1609.18 487.92,-1618.51 500.49,-1616.6 496.56,-1609.18"/>
<text xml:space="preserve" text-anchor="middle" x="546.12" y="-1581.05" font-family="Helvetica,sans-Serif" font-size="10.00" fill="#f59e0b">↺ revise</text>
</g>
<!-- approve&#45;plan&#45;&gt;write&#45;code -->
<g id="edge11" class="edge">
<title>approve&#45;plan&#45;&gt;write&#45;code</title>
<path fill="none" stroke="#60a5fa" d="M456.6,-1484.33C419.39,-1464.29 372.04,-1438.77 338.42,-1420.66"/>
<polygon fill="#60a5fa" stroke="#60a5fa" points="340.25,-1417.67 329.78,-1416 336.93,-1423.83 340.25,-1417.67"/>
<text xml:space="preserve" text-anchor="middle" x="416.93" y="-1446.3" font-family="Helvetica,sans-Serif" font-size="10.00" fill="#60a5fa">decision</text>
</g>
<!-- run&#45;tests -->
<g id="node6" class="node">
<title>run&#45;tests</title>
<polygon fill="#1a1a2e" stroke="#333333" points="516.62,-1308.8 363.38,-1308.8 363.38,-1272.8 516.62,-1272.8 516.62,-1308.8"/>
<text xml:space="preserve" text-anchor="start" x="411.12" y="-1290.5" font-family="Helvetica,sans-Serif" font-weight="bold" font-size="14.00" fill="white">run&#45;tests</text>
<text xml:space="preserve" text-anchor="start" x="371.38" y="-1280.3" font-family="Helvetica,sans-Serif" font-size="10.00" fill="#94a3b8">printf &#39;{&quot;passed&quot;: 8, &quot;failed&quot;: 3,..</text>
</g>
<!-- write&#45;code&#45;&gt;run&#45;tests -->
<g id="edge13" class="edge">
<title>write&#45;code&#45;&gt;run&#45;tests</title>
<path fill="none" stroke="#666666" stroke-dasharray="5,2" d="M320.1,-1378.39C343.78,-1361.29 380.1,-1335.06 406.56,-1315.95"/>
<polygon fill="#666666" stroke="#666666" points="408.53,-1318.84 414.59,-1310.15 404.44,-1313.17 408.53,-1318.84"/>
</g>
<!-- tests&#45;ok -->
<g id="node7" class="node">
<title>tests&#45;ok</title>
<polygon fill="#1a1a2e" stroke="#333333" points="671.88,-1137.8 544.12,-1137.8 544.12,-1101.8 671.88,-1101.8 671.88,-1137.8"/>
<text xml:space="preserve" text-anchor="start" x="582.12" y="-1119.5" font-family="Helvetica,sans-Serif" font-weight="bold" font-size="14.00" fill="white">tests&#45;ok</text>
<text xml:space="preserve" text-anchor="start" x="552.12" y="-1109.3" font-family="Helvetica,sans-Serif" font-size="10.00" fill="#94a3b8">printf &#39;{&quot;result&quot;: &quot;passed&quot;}&#39;</text>
</g>
<!-- run&#45;tests&#45;&gt;tests&#45;ok -->
<g id="edge14" class="edge">
<title>run&#45;tests&#45;&gt;tests&#45;ok</title>
<path fill="none" stroke="#60a5fa" d="M457.35,-1272.35C487.3,-1242.21 548.83,-1180.32 583.27,-1145.68"/>
<polygon fill="#60a5fa" stroke="#60a5fa" points="585.36,-1148.54 589.93,-1138.98 580.4,-1143.6 585.36,-1148.54"/>
<text xml:space="preserve" text-anchor="middle" x="509.2" y="-1234.3" font-family="Helvetica,sans-Serif" font-size="10.00" fill="#60a5fa">status</text>
</g>
<!-- fix&#45;tests -->
<g id="node8" class="node">
<title>fix&#45;tests</title>
<polygon fill="#1a1a2e" stroke="#333333" points="502,-1202.8 378,-1202.8 378,-1166.8 502,-1166.8 502,-1202.8"/>
<text xml:space="preserve" text-anchor="start" x="414.12" y="-1184.5" font-family="Helvetica,sans-Serif" font-weight="bold" font-size="14.00" fill="white">fix&#45;tests</text>
<text xml:space="preserve" text-anchor="start" x="386" y="-1174.3" font-family="Helvetica,sans-Serif" font-size="10.00" fill="#94a3b8">printf &#39;{&quot;fixes&quot;: &quot;applied&quot;}&#39;</text>
</g>
<!-- run&#45;tests&#45;&gt;fix&#45;tests -->
<g id="edge15" class="edge">
<title>run&#45;tests&#45;&gt;fix&#45;tests</title>
<path fill="none" stroke="#60a5fa" d="M440,-1272.63C440,-1256.82 440,-1233.07 440,-1214.4"/>
<polygon fill="#60a5fa" stroke="#60a5fa" points="443.5,-1214.51 440,-1204.51 436.5,-1214.51 443.5,-1214.51"/>
<text xml:space="preserve" text-anchor="middle" x="453.5" y="-1234.3" font-family="Helvetica,sans-Serif" font-size="10.00" fill="#60a5fa">status</text>
</g>
<!-- tests&#45;ok&#45;&gt;open&#45;pr -->
<g id="edge19" class="edge">
<title>tests&#45;ok&#45;&gt;open&#45;pr</title>
<path fill="none" stroke="#60a5fa" d="M609.29,-1101.34C611.53,-1071.13 616.15,-1008.85 618.87,-972.16"/>
<polygon fill="#60a5fa" stroke="#60a5fa" points="622.35,-972.53 619.6,-962.3 615.37,-972.01 622.35,-972.53"/>
<text xml:space="preserve" text-anchor="middle" x="637.38" y="-1048.1" font-family="Helvetica,sans-Serif" font-size="10.00" fill="#60a5fa">test_result</text>
</g>
<!-- rerun&#45;tests -->
<g id="node9" class="node">
<title>rerun&#45;tests</title>
<polygon fill="#1a1a2e" stroke="#333333" points="534.62,-1069.6 345.38,-1069.6 345.38,-1033.6 534.62,-1033.6 534.62,-1069.6"/>
<text xml:space="preserve" text-anchor="start" x="404.75" y="-1051.3" font-family="Helvetica,sans-Serif" font-weight="bold" font-size="14.00" fill="white">rerun&#45;tests</text>
<text xml:space="preserve" text-anchor="start" x="353.38" y="-1041.1" font-family="Helvetica,sans-Serif" font-size="10.00" fill="#94a3b8">if [ &quot;$STEPWISE_ATTEMPT&quot; &#45;ge 2 ]; ..</text>
</g>
<!-- fix&#45;tests&#45;&gt;rerun&#45;tests -->
<g id="edge16" class="edge">
<title>fix&#45;tests&#45;&gt;rerun&#45;tests</title>
<path fill="none" stroke="#60a5fa" d="M440,-1166.38C440,-1144.71 440,-1107.43 440,-1081.47"/>
<polygon fill="#60a5fa" stroke="#60a5fa" points="443.5,-1081.61 440,-1071.61 436.5,-1081.61 443.5,-1081.61"/>
<text xml:space="preserve" text-anchor="middle" x="450.5" y="-1116.3" font-family="Helvetica,sans-Serif" font-size="10.00" fill="#60a5fa">fixes</text>
</g>
<!-- rerun&#45;tests&#45;&gt;fix&#45;tests -->
<g id="edge17" class="edge">
<title>rerun&#45;tests&#45;&gt;fix&#45;tests</title>
<path fill="none" stroke="#f59e0b" stroke-width="2.5" d="M534.99,-1068.19C604.56,-1080.07 687.75,-1095.43 693,-1101.8 703.18,-1114.15 703.25,-1125.52 693,-1137.8 670.95,-1164.22 583.73,-1175.5 517.81,-1180.29"/>
<polygon fill="#f59e0b" stroke="#f59e0b" stroke-width="2.5" points="517.88,-1176.08 506.19,-1181.07 518.45,-1184.46 517.88,-1176.08"/>
<text xml:space="preserve" text-anchor="middle" x="711.54" y="-1116.67" font-family="Helvetica,sans-Serif" font-size="10.00" fill="#f59e0b">↺ fail</text>
</g>
<!-- rerun&#45;tests&#45;&gt;open&#45;pr -->
<g id="edge20" class="edge">
<title>rerun&#45;tests&#45;&gt;open&#45;pr</title>
<path fill="none" stroke="#60a5fa" d="M469.37,-1033.18C490.03,-1020.93 518.33,-1004.16 543.25,-989.4 555.82,-981.96 569.53,-973.85 581.89,-966.53"/>
<polygon fill="#60a5fa" stroke="#60a5fa" points="583.33,-969.74 590.16,-961.64 579.77,-963.72 583.33,-969.74"/>
<text xml:space="preserve" text-anchor="middle" x="566.12" y="-991.9" font-family="Helvetica,sans-Serif" font-size="10.00" fill="#60a5fa">test_result</text>
</g>
<!-- open&#45;pr&#45;&gt;await&#45;review -->
<g id="edge21" class="edge">
<title>open&#45;pr&#45;&gt;await&#45;review</title>
<path fill="none" stroke="#60a5fa" d="M587.52,-928.65C541.87,-911.26 459.47,-879.86 404.24,-858.83"/>
<polygon fill="#60a5fa" stroke="#60a5fa" points="405.58,-855.59 394.99,-855.3 403.09,-862.13 405.58,-855.59"/>
<text xml:space="preserve" text-anchor="middle" x="496.81" y="-885.9" font-family="Helvetica,sans-Serif" font-size="10.00" fill="#60a5fa">pr</text>
</g>
<!-- ship&#45;it -->
<g id="node16" class="node">
<title>ship&#45;it</title>
<polygon fill="#1a1a2e" stroke="#333333" points="629.99,-406.4 361.16,-406.4 292.01,-342.4 560.84,-342.4 629.99,-406.4"/>
<text xml:space="preserve" text-anchor="start" x="440.75" y="-374.1" font-family="Helvetica,sans-Serif" font-weight="bold" font-size="14.00" fill="white">ship&#45;it</text>
<text xml:space="preserve" text-anchor="start" x="387.5" y="-363.9" font-family="Helvetica,sans-Serif" font-size="10.00" fill="#94a3b8">&quot;$pr_title&quot; ($pr) reviewed by $rev..</text>
</g>
<!-- open&#45;pr&#45;&gt;ship&#45;it -->
<g id="edge28" class="edge">
<title>open&#45;pr&#45;&gt;ship&#45;it</title>
<path fill="none" stroke="#60a5fa" d="M649.01,-924.04C674.44,-905.88 708,-874.83 708,-837.4 708,-837.4 708,-837.4 708,-493.4 708,-449.48 675.81,-421.89 634.67,-404.57"/>
<polygon fill="#60a5fa" stroke="#60a5fa" points="636.03,-401.34 625.44,-400.94 633.46,-407.85 636.03,-401.34"/>
<text xml:space="preserve" text-anchor="middle" x="712.12" y="-661.9" font-family="Helvetica,sans-Serif" font-size="10.00" fill="#60a5fa">pr</text>
</g>
<!-- open&#45;pr&#45;&gt;ship&#45;it -->
<g id="edge29" class="edge">
<title>open&#45;pr&#45;&gt;ship&#45;it</title>
<path fill="none" stroke="#60a5fa" d="M621,-924.1C621,-903.46 621,-867.91 621,-837.4 621,-837.4 621,-837.4 621,-493.4 621,-457.12 594.02,-430.73 562.22,-412.24"/>
<polygon fill="#60a5fa" stroke="#60a5fa" points="563.99,-409.22 553.54,-407.48 560.63,-415.36 563.99,-409.22"/>
<text xml:space="preserve" text-anchor="middle" x="635.62" y="-661.9" font-family="Helvetica,sans-Serif" font-size="10.00" fill="#60a5fa">pr_title</text>
</g>
<!-- open&#45;pr&#45;&gt;merge -->
<g id="edge33" class="edge">
<title>open&#45;pr&#45;&gt;merge</title>
<path fill="none" stroke="#60a5fa" d="M587.43,-939.62C522.82,-934.82 378.68,-917.31 278,-854.4 148.2,-773.3 120,-701.46 120,-548.4 120,-548.4 120,-548.4 120,-373.4 120,-324.67 167.72,-294.46 212.59,-276.81"/>
<polygon fill="#60a5fa" stroke="#60a5fa" points="213.74,-280.12 221.88,-273.34 211.29,-273.56 213.74,-280.12"/>
<text xml:space="preserve" text-anchor="middle" x="126.59" y="-596.9" font-family="Helvetica,sans-Serif" font-size="10.00" fill="#60a5fa">pr</text>
</g>
<!-- deploy&#45;prod -->
<g id="node18" class="node">
<title>deploy&#45;prod</title>
<polygon fill="#1a1a2e" stroke="#333333" points="859.25,-166.4 712.75,-166.4 712.75,-130.4 859.25,-130.4 859.25,-166.4"/>
<text xml:space="preserve" text-anchor="start" x="747" y="-148.1" font-family="Helvetica,sans-Serif" font-weight="bold" font-size="14.00" fill="white">deploy&#45;prod</text>
<text xml:space="preserve" text-anchor="start" x="720.75" y="-137.9" font-family="Helvetica,sans-Serif" font-size="10.00" fill="#94a3b8">printf &#39;{&quot;status&quot;: &quot;live&quot;, &quot;pr_tit..</text>
</g>
<!-- open&#45;pr&#45;&gt;deploy&#45;prod -->
<g id="edge36" class="edge">
<title>open&#45;pr&#45;&gt;deploy&#45;prod</title>
<path fill="none" stroke="#60a5fa" d="M654.55,-936.71C705.11,-927.55 795,-902.16 795,-837.4 795,-837.4 795,-837.4 795,-253.4 795,-227.8 792.26,-198.78 789.8,-177.91"/>
<polygon fill="#60a5fa" stroke="#60a5fa" points="793.3,-177.66 788.6,-168.16 786.35,-178.51 793.3,-177.66"/>
<text xml:space="preserve" text-anchor="middle" x="809.62" y="-543.9" font-family="Helvetica,sans-Serif" font-size="10.00" fill="#60a5fa">pr_title</text>
</g>
<!-- close&#45;pr -->
<g id="node19" class="node">
<title>close&#45;pr</title>
<polygon fill="#1a1a2e" stroke="#333333" points="1022.38,-272.4 867.62,-272.4 867.62,-236.4 1022.38,-236.4 1022.38,-272.4"/>
<text xml:space="preserve" text-anchor="start" x="918.75" y="-254.1" font-family="Helvetica,sans-Serif" font-weight="bold" font-size="14.00" fill="white">close&#45;pr</text>
<text xml:space="preserve" text-anchor="start" x="875.62" y="-243.9" font-family="Helvetica,sans-Serif" font-size="10.00" fill="#94a3b8">printf &#39;{&quot;status&quot;: &quot;closed&quot;, &quot;pr_t..</text>
</g>
<!-- open&#45;pr&#45;&gt;close&#45;pr -->
<g id="edge37" class="edge">
<title>open&#45;pr&#45;&gt;close&#45;pr</title>
<path fill="none" stroke="#60a5fa" d="M654.53,-940.15C753.09,-935.58 1035,-915.68 1035,-837.4 1035,-837.4 1035,-837.4 1035,-373.4 1035,-334.91 1004.35,-301.16 978.83,-279.72"/>
<polygon fill="#60a5fa" stroke="#60a5fa" points="981.23,-277.17 971.25,-273.62 976.84,-282.62 981.23,-277.17"/>
<text xml:space="preserve" text-anchor="middle" x="1049.62" y="-596.9" font-family="Helvetica,sans-Serif" font-size="10.00" fill="#60a5fa">pr_title</text>
</g>
<!-- review&#45;ok -->
<g id="node12" class="node">
<title>review&#45;ok</title>
<polygon fill="#1a1a2e" stroke="#333333" points="390.75,-683.4 241.25,-683.4 241.25,-647.4 390.75,-647.4 390.75,-683.4"/>
<text xml:space="preserve" text-anchor="start" x="284.5" y="-665.1" font-family="Helvetica,sans-Serif" font-weight="bold" font-size="14.00" fill="white">review&#45;ok</text>
<text xml:space="preserve" text-anchor="start" x="249.25" y="-654.9" font-family="Helvetica,sans-Serif" font-size="10.00" fill="#94a3b8">printf &#39;{&quot;outcome&quot;: &quot;approved&quot;}&#39;</text>
</g>
<!-- await&#45;review&#45;&gt;review&#45;ok -->
<g id="edge22" class="edge">
<title>await&#45;review&#45;&gt;review&#45;ok</title>
<path fill="none" stroke="#60a5fa" d="M344.55,-817.93C342.86,-809.34 340.8,-798.83 339,-789.4 332.79,-756.94 325.84,-719.63 321.22,-694.69"/>
<polygon fill="#60a5fa" stroke="#60a5fa" points="324.69,-694.21 319.43,-685.01 317.81,-695.48 324.69,-694.21"/>
<text xml:space="preserve" text-anchor="middle" x="351" y="-779.9" font-family="Helvetica,sans-Serif" font-size="10.00" fill="#60a5fa">result</text>
</g>
<!-- revise&#45;code -->
<g id="node13" class="node">
<title>revise&#45;code</title>
<polygon fill="#1a1a2e" stroke="#333333" points="545.5,-748.4 376.5,-748.4 376.5,-712.4 545.5,-712.4 545.5,-748.4"/>
<text xml:space="preserve" text-anchor="start" x="423.5" y="-730.1" font-family="Helvetica,sans-Serif" font-weight="bold" font-size="14.00" fill="white">revise&#45;code</text>
<text xml:space="preserve" text-anchor="start" x="384.5" y="-719.9" font-family="Helvetica,sans-Serif" font-size="10.00" fill="#94a3b8">printf &#39;{&quot;changes&quot;: &quot;revised — add..</text>
</g>
<!-- await&#45;review&#45;&gt;revise&#45;code -->
<g id="edge23" class="edge">
<title>await&#45;review&#45;&gt;revise&#45;code</title>
<path fill="none" stroke="#60a5fa" d="M355.58,-818.13C361.66,-805.71 371.13,-789.15 383,-777.4 391.81,-768.68 402.59,-760.96 413.3,-754.47"/>
<polygon fill="#60a5fa" stroke="#60a5fa" points="414.82,-757.63 421.74,-749.6 411.33,-751.56 414.82,-757.63"/>
<text xml:space="preserve" text-anchor="middle" x="395" y="-779.9" font-family="Helvetica,sans-Serif" font-size="10.00" fill="#60a5fa">result</text>
</g>
<!-- await&#45;review&#45;&gt;revise&#45;code -->
<g id="edge24" class="edge">
<title>await&#45;review&#45;&gt;revise&#45;code</title>
<path fill="none" stroke="#60a5fa" d="M375.78,-818.1C387.79,-810.05 401.65,-799.93 413,-789.4 423.27,-779.87 433.36,-768.16 441.61,-757.75"/>
<polygon fill="#60a5fa" stroke="#60a5fa" points="444.36,-759.92 447.7,-749.87 438.82,-755.64 444.36,-759.92"/>
<text xml:space="preserve" text-anchor="middle" x="444.48" y="-779.9" font-family="Helvetica,sans-Serif" font-size="10.00" fill="#60a5fa">feedback</text>
</g>
<!-- await&#45;review&#45;&gt;ship&#45;it -->
<g id="edge30" class="edge">
<title>await&#45;review&#45;&gt;ship&#45;it</title>
<path fill="none" stroke="#60a5fa" d="M298.86,-819.71C260.62,-804.06 214,-775.87 214,-731.4 214,-731.4 214,-731.4 214,-493.4 214,-435.13 270.67,-405.61 329.72,-390.66"/>
<polygon fill="#60a5fa" stroke="#60a5fa" points="330.36,-394.1 339.28,-388.39 328.75,-387.29 330.36,-394.1"/>
<text xml:space="preserve" text-anchor="middle" x="232.38" y="-596.9" font-family="Helvetica,sans-Serif" font-size="10.00" fill="#60a5fa">reviewer</text>
</g>
<!-- review&#45;ok&#45;&gt;ship&#45;it -->
<g id="edge31" class="edge">
<title>review&#45;ok&#45;&gt;ship&#45;it</title>
<path fill="none" stroke="#60a5fa" d="M314.86,-647.07C313.36,-612.36 313.92,-532.8 345,-476.4 358.53,-451.84 380.48,-430.44 401.66,-413.74"/>
<polygon fill="#60a5fa" stroke="#60a5fa" points="403.63,-416.63 409.46,-407.79 399.39,-411.07 403.63,-416.63"/>
<text xml:space="preserve" text-anchor="middle" x="357.67" y="-543.9" font-family="Helvetica,sans-Serif" font-size="10.00" fill="#60a5fa">review_outcome</text>
</g>
<!-- push&#45;fix -->
<g id="node14" class="node">
<title>push&#45;fix</title>
<polygon fill="#1a1a2e" stroke="#333333" points="517.38,-618.4 404.62,-618.4 404.62,-582.4 517.38,-582.4 517.38,-618.4"/>
<text xml:space="preserve" text-anchor="start" x="434.75" y="-600.1" font-family="Helvetica,sans-Serif" font-weight="bold" font-size="14.00" fill="white">push&#45;fix</text>
<text xml:space="preserve" text-anchor="start" x="412.62" y="-589.9" font-family="Helvetica,sans-Serif" font-size="10.00" fill="#94a3b8">printf &#39;{&quot;pushed&quot;: true}&#39;</text>
</g>
<!-- revise&#45;code&#45;&gt;push&#45;fix -->
<g id="edge25" class="edge">
<title>revise&#45;code&#45;&gt;push&#45;fix</title>
<path fill="none" stroke="#60a5fa" d="M461,-712.14C461,-691.14 461,-655.4 461,-630.21"/>
<polygon fill="#60a5fa" stroke="#60a5fa" points="464.5,-630.31 461,-620.31 457.5,-630.31 464.5,-630.31"/>
<text xml:space="preserve" text-anchor="middle" x="479.38" y="-661.9" font-family="Helvetica,sans-Serif" font-size="10.00" fill="#60a5fa">changes</text>
</g>
<!-- re&#45;review -->
<g id="node15" class="node">
<title>re&#45;review</title>
<polygon fill="#1a1a2e" stroke="#333333" points="555.62,-512.4 366.38,-512.4 366.38,-476.4 555.62,-476.4 555.62,-512.4"/>
<text xml:space="preserve" text-anchor="start" x="431" y="-494.1" font-family="Helvetica,sans-Serif" font-weight="bold" font-size="14.00" fill="white">re&#45;review</text>
<text xml:space="preserve" text-anchor="start" x="374.38" y="-483.9" font-family="Helvetica,sans-Serif" font-size="10.00" fill="#94a3b8">if [ &quot;$STEPWISE_ATTEMPT&quot; &#45;ge 2 ]; ..</text>
</g>
<!-- push&#45;fix&#45;&gt;re&#45;review -->
<g id="edge26" class="edge">
<title>push&#45;fix&#45;&gt;re&#45;review</title>
<path fill="none" stroke="#60a5fa" d="M461,-582.23C461,-566.42 461,-542.67 461,-524"/>
<polygon fill="#60a5fa" stroke="#60a5fa" points="464.5,-524.11 461,-514.11 457.5,-524.11 464.5,-524.11"/>
<text xml:space="preserve" text-anchor="middle" x="476.75" y="-543.9" font-family="Helvetica,sans-Serif" font-size="10.00" fill="#60a5fa">pushed</text>
</g>
<!-- re&#45;review&#45;&gt;revise&#45;code -->
<g id="edge27" class="edge">
<title>re&#45;review&#45;&gt;revise&#45;code</title>
<path fill="none" stroke="#f59e0b" stroke-width="2.5" d="M556.02,-500.66C660.42,-507.44 815.82,-520.84 834,-541.4 886.52,-600.8 794.62,-643.68 726,-683.4 698.23,-699.47 623.92,-711.55 561.03,-719.28"/>
<polygon fill="#f59e0b" stroke="#f59e0b" stroke-width="2.5" points="560.91,-715.06 549.49,-720.66 561.91,-723.4 560.91,-715.06"/>
<text xml:space="preserve" text-anchor="middle" x="871.65" y="-597.27" font-family="Helvetica,sans-Serif" font-size="10.00" fill="#f59e0b">↺ changes</text>
</g>
<!-- re&#45;review&#45;&gt;ship&#45;it -->
<g id="edge32" class="edge">
<title>re&#45;review&#45;&gt;ship&#45;it</title>
<path fill="none" stroke="#60a5fa" d="M461,-475.99C461,-460.77 461,-438.04 461,-418.03"/>
<polygon fill="#60a5fa" stroke="#60a5fa" points="464.5,-418.16 461,-408.16 457.5,-418.16 464.5,-418.16"/>
<text xml:space="preserve" text-anchor="middle" x="496.62" y="-437.9" font-family="Helvetica,sans-Serif" font-size="10.00" fill="#60a5fa">review_outcome</text>
</g>
<!-- ship&#45;it&#45;&gt;merge -->
<g id="edge34" class="edge">
<title>ship&#45;it&#45;&gt;merge</title>
<path fill="none" stroke="#60a5fa" d="M415.62,-342.09C386.9,-322.26 350.35,-297.05 324.1,-278.93"/>
<polygon fill="#60a5fa" stroke="#60a5fa" points="326.38,-276.26 316.17,-273.46 322.41,-282.02 326.38,-276.26"/>
<text xml:space="preserve" text-anchor="middle" x="388.37" y="-303.9" font-family="Helvetica,sans-Serif" font-size="10.00" fill="#60a5fa">decision</text>
</g>
<!-- ship&#45;it&#45;&gt;close&#45;pr -->
<g id="edge38" class="edge">
<title>ship&#45;it&#45;&gt;close&#45;pr</title>
<path fill="none" stroke="#60a5fa" d="M566.92,-347.58C655.85,-325.9 781.1,-295.36 862.66,-275.47"/>
<polygon fill="#60a5fa" stroke="#60a5fa" points="863.02,-278.99 871.91,-273.22 861.36,-272.19 863.02,-278.99"/>
<text xml:space="preserve" text-anchor="middle" x="764.35" y="-303.9" font-family="Helvetica,sans-Serif" font-size="10.00" fill="#60a5fa">decision</text>
</g>
<!-- merge&#45;&gt;deploy&#45;prod -->
<g id="edge35" class="edge">
<title>merge&#45;&gt;deploy&#45;prod</title>
<path fill="none" stroke="#60a5fa" d="M368.59,-236.92C459.41,-217.88 608.3,-186.66 701.54,-167.11"/>
<polygon fill="#60a5fa" stroke="#60a5fa" points="702.08,-170.57 711.14,-165.1 700.64,-163.72 702.08,-170.57"/>
<text xml:space="preserve" text-anchor="middle" x="566" y="-197.9" font-family="Helvetica,sans-Serif" font-size="10.00" fill="#60a5fa">action</text>
</g>
<!-- __outputs__ -->
<g id="node20" class="node">
<title>__outputs__</title>
<path fill="#022c22" stroke="#065f46" d="M885.17,-60.4C885.17,-60.4 844.83,-60.4 844.83,-60.4 838.83,-60.4 832.83,-54.4 832.83,-48.4 832.83,-48.4 832.83,-12 832.83,-12 832.83,-6 838.83,0 844.83,0 844.83,0 885.17,0 885.17,0 891.17,0 897.17,-6 897.17,-12 897.17,-12 897.17,-48.4 897.17,-48.4 897.17,-54.4 891.17,-60.4 885.17,-60.4"/>
<text xml:space="preserve" text-anchor="start" x="843.62" y="-44.7" font-family="Helvetica,sans-Serif" font-size="10.00" fill="#6ee7b7">↑ Outputs</text>
<text xml:space="preserve" text-anchor="start" x="853" y="-35.65" font-family="Helvetica,sans-Serif" font-size="9.00" fill="#6ee7b7">status</text>
<text xml:space="preserve" text-anchor="start" x="851.12" y="-26.65" font-family="Helvetica,sans-Serif" font-size="9.00" fill="#6ee7b7">pr_title</text>
<text xml:space="preserve" text-anchor="start" x="853" y="-17.65" font-family="Helvetica,sans-Serif" font-size="9.00" fill="#6ee7b7">status</text>
<text xml:space="preserve" text-anchor="start" x="851.12" y="-8.65" font-family="Helvetica,sans-Serif" font-size="9.00" fill="#6ee7b7">pr_title</text>
</g>
<!-- deploy&#45;prod&#45;&gt;__outputs__ -->
<g id="edge39" class="edge">
<title>deploy&#45;prod&#45;&gt;__outputs__</title>
<path fill="none" stroke="#065f46" stroke-dasharray="5,2" d="M797.83,-130C808.6,-114.15 824.9,-90.18 838.74,-69.82"/>
<polygon fill="#065f46" stroke="#065f46" points="841.53,-71.95 844.25,-61.71 835.74,-68.02 841.53,-71.95"/>
<text xml:space="preserve" text-anchor="middle" x="854.26" y="-91.9" font-family="Helvetica,sans-Serif" font-size="10.00" fill="#6ee7b7">status, pr_title</text>
</g>
<!-- close&#45;pr&#45;&gt;__outputs__ -->
<g id="edge40" class="edge">
<title>close&#45;pr&#45;&gt;__outputs__</title>
<path fill="none" stroke="#065f46" stroke-dasharray="5,2" d="M940.87,-236.29C933.34,-206.07 916.18,-141.52 895,-89.4 892.51,-83.26 889.59,-76.9 886.58,-70.74"/>
<polygon fill="#065f46" stroke="#065f46" points="889.79,-69.32 882.15,-61.97 883.54,-72.48 889.79,-69.32"/>
<text xml:space="preserve" text-anchor="middle" x="952.57" y="-144.9" font-family="Helvetica,sans-Serif" font-size="10.00" fill="#6ee7b7">status, pr_title</text>
</g>
</g>
</svg>
