<?xml version="1.0" encoding="UTF-8" standalone="no"?>
<!DOCTYPE svg PUBLIC "-//W3C//DTD SVG 1.1//EN"
 "http://www.w3.org/Graphics/SVG/1.1/DTD/svg11.dtd">
<!-- Generated by graphviz version 14.1.2 (0)
 -->
<!-- Title: welcome Pages: 1 -->
<svg width="1363pt" height="1518pt"
 viewBox="0.00 0.00 1363.00 1518.00" xmlns="http://www.w3.org/2000/svg" xmlns:xlink="http://www.w3.org/1999/xlink">
<g id="graph0" class="graph" transform="scale(1 1) rotate(0) translate(36 1482.3)">
<title>welcome</title>
<polygon fill="#0a0a0f" stroke="none" points="-36,36 -36,-1482.3 1327.25,-1482.3 1327.25,36 -36,36"/>
<!-- __inputs__ -->
<g id="node1" class="node">
<title>__inputs__</title>
<path fill="#1e293b" stroke="#475569" d="M1074.67,-976.55C1074.67,-976.55 1017.83,-976.55 1017.83,-976.55 1011.83,-976.55 1005.83,-970.55 1005.83,-964.55 1005.83,-964.55 1005.83,-946.15 1005.83,-946.15 1005.83,-940.15 1011.83,-934.15 1017.83,-934.15 1017.83,-934.15 1074.67,-934.15 1074.67,-934.15 1080.67,-934.15 1086.67,-940.15 1086.67,-946.15 1086.67,-946.15 1086.67,-964.55 1086.67,-964.55 1086.67,-970.55 1080.67,-976.55 1074.67,-976.55"/>
<text xml:space="preserve" text-anchor="start" x="1028.62" y="-960.85" font-family="Helvetica,sans-Serif" font-size="10.00" fill="#94a3b8">↓ Inputs</text>
<text xml:space="preserve" text-anchor="start" x="1016.62" y="-951.8" font-family="Helvetica,sans-Serif" font-size="9.00" fill="#94a3b8">reviewer_style</text>
<text xml:space="preserve" text-anchor="start" x="1021.88" y="-942.8" font-family="Helvetica,sans-Serif" font-size="9.00" fill="#94a3b8">team_name</text>
</g>
<!-- open&#45;pr -->
<g id="node8" class="node">
<title>open&#45;pr</title>
<polygon fill="#1a1a2e" stroke="#333333" points="527.38,-863.4 461.12,-863.4 461.12,-827.4 527.38,-827.4 527.38,-863.4"/>
<text xml:space="preserve" text-anchor="start" x="469.12" y="-845.1" font-family="Helvetica,sans-Serif" font-weight="bold" font-size="14.00" fill="white">open&#45;pr</text>
<text xml:space="preserve" text-anchor="start" x="474.75" y="-834.9" font-family="Helvetica,sans-Serif" font-size="10.00" fill="#94a3b8">sub_flow</text>
</g>
<!-- __inputs__&#45;&gt;open&#45;pr -->
<g id="edge1" class="edge">
<title>__inputs__&#45;&gt;open&#45;pr</title>
<path fill="none" stroke="#475569" stroke-dasharray="5,2" d="M1005.66,-946.41C904.87,-926.7 643.75,-875.64 538.85,-855.12"/>
<polygon fill="#475569" stroke="#475569" points="539.69,-851.72 529.21,-853.24 538.35,-858.59 539.69,-851.72"/>
<text xml:space="preserve" text-anchor="middle" x="812.3" y="-895.27" font-family="Helvetica,sans-Serif" font-size="10.00" fill="#94a3b8">team_name</text>
</g>
<!-- await&#45;review -->
<g id="node9" class="node">
<title>await&#45;review</title>
<polygon fill="#1a1a2e" stroke="#333333" points="874.25,-733.4 684.25,-733.4 684.25,-697.4 874.25,-697.4 874.25,-733.4"/>
<text xml:space="preserve" text-anchor="start" x="738.38" y="-715.1" font-family="Helvetica,sans-Serif" font-weight="bold" font-size="14.00" fill="white">await&#45;review</text>
<text xml:space="preserve" text-anchor="start" x="692.25" y="-704.9" font-family="Helvetica,sans-Serif" font-size="10.00" fill="#94a3b8">sleep 2if [ &quot;$STEPWISE_ATTEMPT&quot; &#45;..</text>
</g>
<!-- __inputs__&#45;&gt;await&#45;review -->
<g id="edge2" class="edge">
<title>__inputs__&#45;&gt;await&#45;review</title>
<path fill="none" stroke="#475569" stroke-dasharray="5,2" d="M1023.49,-934.06C974.73,-890.61 860.34,-788.66 807.24,-741.34"/>
<polygon fill="#475569" stroke="#475569" points="809.59,-738.75 799.79,-734.71 804.93,-743.97 809.59,-738.75"/>
<text xml:space="preserve" text-anchor="middle" x="975.15" y="-841.9" font-family="Helvetica,sans-Serif" font-size="10.00" fill="#94a3b8">reviewer_style</text>
</g>
<!-- merge -->
<g id="node13" class="node">
<title>merge</title>
<polygon fill="#1a1a2e" stroke="#333333" points="961.88,-281.4 802.62,-281.4 802.62,-245.4 961.88,-245.4 961.88,-281.4"/>
<text xml:space="preserve" text-anchor="start" x="861.62" y="-263.1" font-family="Helvetica,sans-Serif" font-weight="bold" font-size="14.00" fill="white">merge</text>
<text xml:space="preserve" text-anchor="start" x="810.62" y="-252.9" font-family="Helvetica,sans-Serif" font-size="10.00" fill="#94a3b8">sleep 1printf &#39;{&quot;action&quot;: &quot;merged..</text>
</g>
<!-- __inputs__&#45;&gt;merge -->
<g id="edge3" class="edge">
<title>__inputs__&#45;&gt;merge</title>
<path fill="none" stroke="#475569" stroke-dasharray="5,2" d="M1086.92,-949.87C1143.81,-941.1 1240.25,-915.97 1240.25,-846.4 1240.25,-846.4 1240.25,-846.4 1240.25,-382.4 1240.25,-326.28 1079.58,-292.4 973.51,-276.14"/>
<polygon fill="#475569" stroke="#475569" points="974.05,-272.68 963.64,-274.66 973.01,-279.6 974.05,-272.68"/>
<text xml:space="preserve" text-anchor="middle" x="1265.75" y="-605.9" font-family="Helvetica,sans-Serif" font-size="10.00" fill="#94a3b8">team_name</text>
</g>
<!-- pick&#45;feature -->
<g id="node2" class="node">
<title>pick&#45;feature</title>
<polygon fill="#1a1a2e" stroke="#333333" points="534.68,-1446.3 223.8,-1446.3 143.82,-1382.3 454.7,-1382.3 534.68,-1446.3"/>
<text xml:space="preserve" text-anchor="start" x="301" y="-1414" font-family="Helvetica,sans-Serif" font-weight="bold" font-size="14.00" fill="white">pick&#45;feature</text>
<text xml:space="preserve" text-anchor="start" x="253" y="-1403.8" font-family="Helvetica,sans-Serif" font-size="10.00" fill="#94a3b8">Welcome to Stepwise — workflow orc..</text>
</g>
<!-- plan -->
<g id="node3" class="node">
<title>plan</title>
<polygon fill="#1a1a2e" stroke="#333333" points="252.88,-1312.3 51.62,-1312.3 51.62,-1276.3 252.88,-1276.3 252.88,-1312.3"/>
<text xml:space="preserve" text-anchor="start" x="138.38" y="-1294" font-family="Helvetica,sans-Serif" font-weight="bold" font-size="14.00" fill="white">plan</text>
<text xml:space="preserve" text-anchor="start" x="59.62" y="-1283.8" font-family="Helvetica,sans-Serif" font-size="10.00" fill="#94a3b8">revision=$STEPWISE_ATTEMPTsleep 2..</text>
</g>
<!-- pick&#45;feature&#45;&gt;plan -->
<g id="edge4" class="edge">
<title>pick&#45;feature&#45;&gt;plan</title>
<path fill="none" stroke="#60a5fa" d="M289.63,-1381.99C258.17,-1362.14 218.15,-1336.88 189.42,-1318.76"/>
<polygon fill="#60a5fa" stroke="#60a5fa" points="191.37,-1315.85 181.05,-1313.47 187.64,-1321.77 191.37,-1315.85"/>
<text xml:space="preserve" text-anchor="middle" x="255.14" y="-1343.8" font-family="Helvetica,sans-Serif" font-size="10.00" fill="#60a5fa">feature</text>
</g>
<!-- approve&#45;plan -->
<g id="node4" class="node">
<title>approve&#45;plan</title>
<polygon fill="#1a1a2e" stroke="#333333" points="429.24,-1205.55 149.28,-1205.55 77.26,-1141.55 357.22,-1141.55 429.24,-1205.55"/>
<text xml:space="preserve" text-anchor="start" x="210.88" y="-1173.25" font-family="Helvetica,sans-Serif" font-weight="bold" font-size="14.00" fill="white">approve&#45;plan</text>
<text xml:space="preserve" text-anchor="start" x="176.38" y="-1163.05" font-family="Helvetica,sans-Serif" font-size="10.00" fill="#94a3b8">Feature: $feature — $plan (revisio..</text>
</g>
<!-- pick&#45;feature&#45;&gt;approve&#45;plan -->
<g id="edge5" class="edge">
<title>pick&#45;feature&#45;&gt;approve&#45;plan</title>
<path fill="none" stroke="#60a5fa" d="M328.01,-1382.09C312.75,-1339.73 285.44,-1263.9 268.39,-1216.57"/>
<polygon fill="#60a5fa" stroke="#60a5fa" points="271.69,-1215.42 265.01,-1207.19 265.1,-1217.79 271.69,-1215.42"/>
<text xml:space="preserve" text-anchor="middle" x="316.97" y="-1290.8" font-family="Helvetica,sans-Serif" font-size="10.00" fill="#60a5fa">feature</text>
</g>
<!-- pick&#45;feature&#45;&gt;open&#45;pr -->
<g id="edge16" class="edge">
<title>pick&#45;feature&#45;&gt;open&#45;pr</title>
<path fill="none" stroke="#60a5fa" d="M426.26,-1381.95C461.6,-1363.16 494.25,-1335.04 494.25,-1295.3 494.25,-1295.3 494.25,-1295.3 494.25,-954.35 494.25,-927.43 494.25,-896.75 494.25,-874.99"/>
<polygon fill="#60a5fa" stroke="#60a5fa" points="497.75,-875.11 494.25,-865.11 490.75,-875.11 497.75,-875.11"/>
<text xml:space="preserve" text-anchor="middle" x="509.25" y="-1103.05" font-family="Helvetica,sans-Serif" font-size="10.00" fill="#60a5fa">feature</text>
</g>
<!-- plan&#45;&gt;approve&#45;plan -->
<g id="edge6" class="edge">
<title>plan&#45;&gt;approve&#45;plan</title>
<path fill="none" stroke="#60a5fa" d="M180.97,-1275.94C192.28,-1268.15 204.79,-1258.26 214.25,-1247.3 222.27,-1238.01 229.29,-1226.8 235.08,-1215.98"/>
<polygon fill="#60a5fa" stroke="#60a5fa" points="238.15,-1217.67 239.56,-1207.17 231.91,-1214.5 238.15,-1217.67"/>
<text xml:space="preserve" text-anchor="middle" x="235.78" y="-1237.43" font-family="Helvetica,sans-Serif" font-size="10.00" fill="#60a5fa">tasks</text>
</g>
<!-- plan&#45;&gt;approve&#45;plan -->
<g id="edge7" class="edge">
<title>plan&#45;&gt;approve&#45;plan</title>
<path fill="none" stroke="#60a5fa" d="M125.65,-1275.92C111.45,-1264.41 98.69,-1248.85 108.25,-1234.55 115.33,-1223.95 124.67,-1215.22 135.21,-1208.03"/>
<polygon fill="#60a5fa" stroke="#60a5fa" points="136.81,-1211.16 143.46,-1202.91 133.12,-1205.21 136.81,-1211.16"/>
<text xml:space="preserve" text-anchor="middle" x="117.25" y="-1237.43" font-family="Helvetica,sans-Serif" font-size="10.00" fill="#60a5fa">plan</text>
</g>
<!-- plan&#45;&gt;approve&#45;plan -->
<g id="edge8" class="edge">
<title>plan&#45;&gt;approve&#45;plan</title>
<path fill="none" stroke="#60a5fa" d="M154.62,-1276.06C157.01,-1263.6 161.66,-1246.87 170.5,-1234.55 176.08,-1226.78 182.97,-1219.62 190.39,-1213.16"/>
<polygon fill="#60a5fa" stroke="#60a5fa" points="192.57,-1215.89 198.11,-1206.86 188.15,-1210.47 192.57,-1215.89"/>
<text xml:space="preserve" text-anchor="middle" x="187.38" y="-1237.43" font-family="Helvetica,sans-Serif" font-size="10.00" fill="#60a5fa">revision</text>
</g>
<!-- write&#45;code -->
<g id="node5" class="node">
<title>write&#45;code</title>
<polygon fill="#1a1a2e" stroke="#7c3aed" points="291.38,-1071.55 183.12,-1071.55 183.12,-1035.55 291.38,-1035.55 291.38,-1071.55"/>
<text xml:space="preserve" text-anchor="start" x="203.12" y="-1053.25" font-family="Helvetica,sans-Serif" font-weight="bold" font-size="14.00" fill="white">write&#45;code</text>
<text xml:space="preserve" text-anchor="start" x="191.12" y="-1043.05" font-family="Helvetica,sans-Serif" font-size="10.00" fill="#c084fc">🔗 for&#45;each (3 steps)</text>
</g>
<!-- plan&#45;&gt;write&#45;code -->
<g id="edge11" class="edge">
<title>plan&#45;&gt;write&#45;code</title>
<path fill="none" stroke="#c084fc" d="M111.63,-1275.88C83.7,-1261.49 48.78,-1238.11 32.25,-1205.55 19.38,-1180.19 16.55,-1165.27 32.25,-1141.55 63.07,-1094.99 124.36,-1073.27 171.93,-1063.19"/>
<polygon fill="#c084fc" stroke="#c084fc" points="172.47,-1066.65 181.6,-1061.28 171.11,-1059.78 172.47,-1066.65"/>
<text xml:space="preserve" text-anchor="middle" x="44.25" y="-1170.05" font-family="Helvetica,sans-Serif" font-size="10.00" fill="#c084fc">tasks</text>
</g>
<!-- approve&#45;plan&#45;&gt;plan -->
<g id="edge9" class="edge">
<title>approve&#45;plan&#45;&gt;plan</title>
<path fill="none" stroke="#f59e0b" stroke-width="2.5" d="M263.47,-1205.73C266.04,-1219.49 266.17,-1235.23 258.25,-1247.3 252.8,-1255.61 245.48,-1262.43 237.24,-1268.02"/>
<polygon fill="#f59e0b" stroke="#f59e0b" stroke-width="2.5" points="235.23,-1264.33 226.92,-1273.94 239.42,-1271.61 235.23,-1264.33"/>
<text xml:space="preserve" text-anchor="middle" x="281.13" y="-1237.8" font-family="Helvetica,sans-Serif" font-size="10.00" fill="#f59e0b">↺ revise</text>
</g>
<!-- approve&#45;plan&#45;&gt;write&#45;code -->
<g id="edge10" class="edge">
<title>approve&#45;plan&#45;&gt;write&#45;code</title>
<path fill="none" stroke="#60a5fa" d="M249,-1141.24C246.55,-1123.15 243.49,-1100.58 241.11,-1083"/>
<polygon fill="#60a5fa" stroke="#60a5fa" points="244.6,-1082.69 239.79,-1073.25 237.66,-1083.63 244.6,-1082.69"/>
<text xml:space="preserve" text-anchor="middle" x="262.77" y="-1103.05" font-family="Helvetica,sans-Serif" font-size="10.00" fill="#60a5fa">decision</text>
</g>
<!-- run&#45;tests -->
<g id="node6" class="node">
<title>run&#45;tests</title>
<polygon fill="#1a1a2e" stroke="#333333" points="332.25,-973.35 142.25,-973.35 142.25,-937.35 332.25,-937.35 332.25,-973.35"/>
<text xml:space="preserve" text-anchor="start" x="208.38" y="-955.05" font-family="Helvetica,sans-Serif" font-weight="bold" font-size="14.00" fill="white">run&#45;tests</text>
<text xml:space="preserve" text-anchor="start" x="150.25" y="-944.85" font-family="Helvetica,sans-Serif" font-size="10.00" fill="#94a3b8">sleep 3if [ &quot;$STEPWISE_ATTEMPT&quot; &#45;..</text>
</g>
<!-- write&#45;code&#45;&gt;run&#45;tests -->
<g id="edge12" class="edge">
<title>write&#45;code&#45;&gt;run&#45;tests</title>
<path fill="none" stroke="#666666" stroke-dasharray="5,2" d="M237.25,-1035.35C237.25,-1021.35 237.25,-1001.29 237.25,-984.88"/>
<polygon fill="#666666" stroke="#666666" points="240.75,-985.24 237.25,-975.24 233.75,-985.24 240.75,-985.24"/>
</g>
<!-- fix&#45;tests -->
<g id="node7" class="node">
<title>fix&#45;tests</title>
<polygon fill="#1a1a2e" stroke="#333333" points="152.5,-798.4 0,-798.4 0,-762.4 152.5,-762.4 152.5,-798.4"/>
<text xml:space="preserve" text-anchor="start" x="50.38" y="-780.1" font-family="Helvetica,sans-Serif" font-weight="bold" font-size="14.00" fill="white">fix&#45;tests</text>
<text xml:space="preserve" text-anchor="start" x="8" y="-769.9" font-family="Helvetica,sans-Serif" font-size="10.00" fill="#94a3b8">sleep 2printf &#39;{&quot;fixes&quot;: &quot;applied..</text>
</g>
<!-- run&#45;tests&#45;&gt;fix&#45;tests -->
<g id="edge13" class="edge">
<title>run&#45;tests&#45;&gt;fix&#45;tests</title>
<path fill="none" stroke="#f59e0b" stroke-width="2.5" d="M163.33,-936.94C145.29,-929.67 127.41,-919.45 114.25,-905.15 91.31,-880.23 82.21,-841.76 78.6,-814.33"/>
<polygon fill="#f59e0b" stroke="#f59e0b" stroke-width="2.5" points="82.81,-814.16 77.39,-802.66 74.45,-815.03 82.81,-814.16"/>
<text xml:space="preserve" text-anchor="middle" x="147.25" y="-895.65" font-family="Helvetica,sans-Serif" font-size="10.00" fill="#f59e0b">↺ fix&#45;and&#45;retest</text>
</g>
<!-- run&#45;tests&#45;&gt;fix&#45;tests -->
<g id="edge14" class="edge">
<title>run&#45;tests&#45;&gt;fix&#45;tests</title>
<path fill="none" stroke="#60a5fa" d="M223.59,-936.9C213.55,-924.29 199.42,-906.97 186.25,-892.4 158.67,-861.88 125.17,-828.57 102.44,-806.49"/>
<polygon fill="#60a5fa" stroke="#60a5fa" points="105,-804.09 95.38,-799.65 100.13,-809.12 105,-804.09"/>
<text xml:space="preserve" text-anchor="middle" x="210.1" y="-895.27" font-family="Helvetica,sans-Serif" font-size="10.00" fill="#60a5fa">status</text>
</g>
<!-- run&#45;tests&#45;&gt;open&#45;pr -->
<g id="edge17" class="edge">
<title>run&#45;tests&#45;&gt;open&#45;pr</title>
<path fill="none" stroke="#60a5fa" d="M285.73,-936.94C310.32,-927.87 340.55,-916.36 367.25,-905.15 395.25,-893.39 426.19,-879.11 450.51,-867.57"/>
<polygon fill="#60a5fa" stroke="#60a5fa" points="451.96,-870.76 459.48,-863.3 448.95,-864.44 451.96,-870.76"/>
<text xml:space="preserve" text-anchor="middle" x="419.76" y="-895.27" font-family="Helvetica,sans-Serif" font-size="10.00" fill="#60a5fa">test_status</text>
</g>
<!-- fix&#45;tests&#45;&gt;run&#45;tests -->
<g id="edge15" class="edge">
<title>fix&#45;tests&#45;&gt;run&#45;tests</title>
<path fill="none" stroke="#f59e0b" stroke-width="2.5" d="M122.74,-798.73C139.77,-806.2 158.68,-815.9 174.25,-827.4 205.63,-850.58 218.03,-856.48 233.25,-892.4 237.05,-901.38 238.67,-911.75 239.17,-921.41"/>
<polygon fill="#f59e0b" stroke="#f59e0b" stroke-width="2.5" points="234.97,-921.29 239.13,-933.31 243.37,-921.32 234.97,-921.29"/>
<text xml:space="preserve" text-anchor="middle" x="254" y="-895.65" font-family="Helvetica,sans-Serif" font-size="10.00" fill="#f59e0b">↺ retest</text>
</g>
<!-- __outputs__ -->
<g id="node16" class="node">
<title>__outputs__</title>
<path fill="#022c22" stroke="#065f46" d="M199.43,-69.4C199.43,-69.4 159.07,-69.4 159.07,-69.4 153.07,-69.4 147.07,-63.4 147.07,-57.4 147.07,-57.4 147.07,-12 147.07,-12 147.07,-6 153.07,0 159.07,0 159.07,0 199.43,0 199.43,0 205.43,0 211.43,-6 211.43,-12 211.43,-12 211.43,-57.4 211.43,-57.4 211.43,-63.4 205.43,-69.4 199.43,-69.4"/>
<text xml:space="preserve" text-anchor="start" x="157.88" y="-53.7" font-family="Helvetica,sans-Serif" font-size="10.00" fill="#6ee7b7">↑ Outputs</text>
<text xml:space="preserve" text-anchor="start" x="169.88" y="-44.65" font-family="Helvetica,sans-Serif" font-size="9.00" fill="#6ee7b7">fixes</text>
<text xml:space="preserve" text-anchor="start" x="167.25" y="-35.65" font-family="Helvetica,sans-Serif" font-size="9.00" fill="#6ee7b7">status</text>
<text xml:space="preserve" text-anchor="start" x="165.38" y="-26.65" font-family="Helvetica,sans-Serif" font-size="9.00" fill="#6ee7b7">pr_title</text>
<text xml:space="preserve" text-anchor="start" x="167.25" y="-17.65" font-family="Helvetica,sans-Serif" font-size="9.00" fill="#6ee7b7">status</text>
<text xml:space="preserve" text-anchor="start" x="165.38" y="-8.65" font-family="Helvetica,sans-Serif" font-size="9.00" fill="#6ee7b7">pr_title</text>
</g>
<!-- fix&#45;tests&#45;&gt;__outputs__ -->
<g id="edge34" class="edge">
<title>fix&#45;tests&#45;&gt;__outputs__</title>
<path fill="none" stroke="#065f46" stroke-dasharray="5,2" d="M70.81,-761.91C64.3,-739.37 54.25,-698.86 54.25,-663.4 54.25,-663.4 54.25,-663.4 54.25,-156.4 54.25,-109.39 100.58,-74.88 136.82,-55.08"/>
<polygon fill="#065f46" stroke="#065f46" points="138.16,-58.33 145.39,-50.59 134.91,-52.13 138.16,-58.33"/>
<text xml:space="preserve" text-anchor="middle" x="64.75" y="-446.9" font-family="Helvetica,sans-Serif" font-size="10.00" fill="#6ee7b7">fixes</text>
</g>
<!-- open&#45;pr&#45;&gt;await&#45;review -->
<g id="edge18" class="edge">
<title>open&#45;pr&#45;&gt;await&#45;review</title>
<path fill="none" stroke="#60a5fa" d="M527.78,-829.34C577.79,-806.88 672.2,-764.48 730.04,-738.5"/>
<polygon fill="#60a5fa" stroke="#60a5fa" points="731.33,-741.76 739.01,-734.47 728.46,-735.38 731.33,-741.76"/>
<text xml:space="preserve" text-anchor="middle" x="674.78" y="-776.9" font-family="Helvetica,sans-Serif" font-size="10.00" fill="#60a5fa">pr</text>
</g>
<!-- ship&#45;it -->
<g id="node12" class="node">
<title>ship&#45;it</title>
<polygon fill="#1a1a2e" stroke="#333333" points="839.24,-415.4 570.41,-415.4 501.26,-351.4 770.09,-351.4 839.24,-415.4"/>
<text xml:space="preserve" text-anchor="start" x="650" y="-383.1" font-family="Helvetica,sans-Serif" font-weight="bold" font-size="14.00" fill="white">ship&#45;it</text>
<text xml:space="preserve" text-anchor="start" x="596.75" y="-372.9" font-family="Helvetica,sans-Serif" font-size="10.00" fill="#94a3b8">&quot;$pr_title&quot; ($pr) reviewed by $rev..</text>
</g>
<!-- open&#45;pr&#45;&gt;ship&#45;it -->
<g id="edge23" class="edge">
<title>open&#45;pr&#45;&gt;ship&#45;it</title>
<path fill="none" stroke="#60a5fa" d="M477.3,-826.98C456.59,-803.77 424.25,-760.47 424.25,-716.4 424.25,-716.4 424.25,-716.4 424.25,-502.4 424.25,-444.43 480.47,-414.92 539.16,-399.9"/>
<polygon fill="#60a5fa" stroke="#60a5fa" points="539.76,-403.36 548.66,-397.62 538.12,-396.55 539.76,-403.36"/>
<text xml:space="preserve" text-anchor="middle" x="428.38" y="-605.9" font-family="Helvetica,sans-Serif" font-size="10.00" fill="#60a5fa">pr</text>
</g>
<!-- open&#45;pr&#45;&gt;ship&#45;it -->
<g id="edge24" class="edge">
<title>open&#45;pr&#45;&gt;ship&#45;it</title>
<path fill="none" stroke="#60a5fa" d="M499.58,-827.2C506.65,-802.81 518.25,-756.64 518.25,-716.4 518.25,-716.4 518.25,-716.4 518.25,-502.4 518.25,-466.52 545,-439.98 576.05,-421.26"/>
<polygon fill="#60a5fa" stroke="#60a5fa" points="577.54,-424.44 584.49,-416.44 574.07,-418.36 577.54,-424.44"/>
<text xml:space="preserve" text-anchor="middle" x="532.88" y="-605.9" font-family="Helvetica,sans-Serif" font-size="10.00" fill="#60a5fa">pr_title</text>
</g>
<!-- open&#45;pr&#45;&gt;merge -->
<g id="edge28" class="edge">
<title>open&#45;pr&#45;&gt;merge</title>
<path fill="none" stroke="#60a5fa" d="M527.82,-840.32C616.1,-828.85 851.03,-793.15 896.25,-733.4 999.1,-597.51 924.5,-370.5 893.79,-292.06"/>
<polygon fill="#60a5fa" stroke="#60a5fa" points="897.13,-290.98 890.17,-282.99 890.63,-293.58 897.13,-290.98"/>
<text xml:space="preserve" text-anchor="middle" x="952.9" y="-552.9" font-family="Helvetica,sans-Serif" font-size="10.00" fill="#60a5fa">pr</text>
</g>
<!-- deploy&#45;prod -->
<g id="node14" class="node">
<title>deploy&#45;prod</title>
<polygon fill="#1a1a2e" stroke="#333333" points="434,-175.4 284.5,-175.4 284.5,-139.4 434,-139.4 434,-175.4"/>
<text xml:space="preserve" text-anchor="start" x="320.25" y="-157.1" font-family="Helvetica,sans-Serif" font-weight="bold" font-size="14.00" fill="white">deploy&#45;prod</text>
<text xml:space="preserve" text-anchor="start" x="292.5" y="-146.9" font-family="Helvetica,sans-Serif" font-size="10.00" fill="#94a3b8">sleep 2printf &#39;{&quot;status&quot;: &quot;live&quot;,..</text>
</g>
<!-- open&#45;pr&#45;&gt;deploy&#45;prod -->
<g id="edge31" class="edge">
<title>open&#45;pr&#45;&gt;deploy&#45;prod</title>
<path fill="none" stroke="#60a5fa" d="M460.91,-827.98C448.53,-820.45 435.32,-810.49 426.25,-798.4 378.34,-734.54 386.67,-705.73 371.25,-627.4 338.9,-463.13 350.77,-260.28 356.7,-186.72"/>
<polygon fill="#60a5fa" stroke="#60a5fa" points="360.15,-187.43 357.5,-177.17 353.17,-186.84 360.15,-187.43"/>
<text xml:space="preserve" text-anchor="middle" x="370.92" y="-499.9" font-family="Helvetica,sans-Serif" font-size="10.00" fill="#60a5fa">pr_title</text>
</g>
<!-- close&#45;pr -->
<g id="node15" class="node">
<title>close&#45;pr</title>
<polygon fill="#1a1a2e" stroke="#333333" points="273.62,-281.4 118.88,-281.4 118.88,-245.4 273.62,-245.4 273.62,-281.4"/>
<text xml:space="preserve" text-anchor="start" x="170" y="-263.1" font-family="Helvetica,sans-Serif" font-weight="bold" font-size="14.00" fill="white">close&#45;pr</text>
<text xml:space="preserve" text-anchor="start" x="126.88" y="-252.9" font-family="Helvetica,sans-Serif" font-size="10.00" fill="#94a3b8">printf &#39;{&quot;status&quot;: &quot;closed&quot;, &quot;pr_t..</text>
</g>
<!-- open&#45;pr&#45;&gt;close&#45;pr -->
<g id="edge32" class="edge">
<title>open&#45;pr&#45;&gt;close&#45;pr</title>
<path fill="none" stroke="#60a5fa" d="M460.87,-844.82C383.46,-843.88 198.25,-829.78 198.25,-716.4 198.25,-716.4 198.25,-716.4 198.25,-382.4 198.25,-351.87 197.57,-316.9 197.01,-293"/>
<polygon fill="#60a5fa" stroke="#60a5fa" points="200.51,-293.02 196.76,-283.11 193.51,-293.19 200.51,-293.02"/>
<text xml:space="preserve" text-anchor="middle" x="212.88" y="-552.9" font-family="Helvetica,sans-Serif" font-size="10.00" fill="#60a5fa">pr_title</text>
</g>
<!-- revise&#45;code -->
<g id="node10" class="node">
<title>revise&#45;code</title>
<polygon fill="#1a1a2e" stroke="#333333" points="749.5,-627.4 591,-627.4 591,-591.4 749.5,-591.4 749.5,-627.4"/>
<text xml:space="preserve" text-anchor="start" x="632.75" y="-609.1" font-family="Helvetica,sans-Serif" font-weight="bold" font-size="14.00" fill="white">revise&#45;code</text>
<text xml:space="preserve" text-anchor="start" x="599" y="-598.9" font-family="Helvetica,sans-Serif" font-size="10.00" fill="#94a3b8">sleep 2printf &#39;{&quot;changes&quot;: &quot;revis..</text>
</g>
<!-- await&#45;review&#45;&gt;revise&#45;code -->
<g id="edge19" class="edge">
<title>await&#45;review&#45;&gt;revise&#45;code</title>
<path fill="none" stroke="#60a5fa" d="M703.43,-697.04C689.54,-690.37 676.77,-681.15 668.25,-668.4 662.58,-659.91 661.71,-649.05 662.73,-639.03"/>
<polygon fill="#60a5fa" stroke="#60a5fa" points="666.15,-639.78 664.37,-629.34 659.25,-638.61 666.15,-639.78"/>
<text xml:space="preserve" text-anchor="middle" x="680.25" y="-658.9" font-family="Helvetica,sans-Serif" font-size="10.00" fill="#60a5fa">result</text>
</g>
<!-- await&#45;review&#45;&gt;revise&#45;code -->
<g id="edge20" class="edge">
<title>await&#45;review&#45;&gt;revise&#45;code</title>
<path fill="none" stroke="#60a5fa" d="M761.25,-697.23C743.58,-680.37 716.43,-654.46 696.38,-635.34"/>
<polygon fill="#60a5fa" stroke="#60a5fa" points="699.02,-633.01 689.37,-628.64 694.19,-638.08 699.02,-633.01"/>
<text xml:space="preserve" text-anchor="middle" x="747.89" y="-658.9" font-family="Helvetica,sans-Serif" font-size="10.00" fill="#60a5fa">feedback</text>
</g>
<!-- await&#45;review&#45;&gt;ship&#45;it -->
<g id="edge25" class="edge">
<title>await&#45;review&#45;&gt;ship&#45;it</title>
<path fill="none" stroke="#60a5fa" d="M781.99,-697.08C787.44,-657.56 796.5,-558.48 764.25,-485.4 753.85,-461.83 735.6,-440.25 717.93,-423.13"/>
<polygon fill="#60a5fa" stroke="#60a5fa" points="720.68,-420.91 710.99,-416.63 715.9,-426.02 720.68,-420.91"/>
<text xml:space="preserve" text-anchor="middle" x="802.49" y="-552.9" font-family="Helvetica,sans-Serif" font-size="10.00" fill="#60a5fa">reviewer</text>
</g>
<!-- await&#45;review&#45;&gt;ship&#45;it -->
<g id="edge26" class="edge">
<title>await&#45;review&#45;&gt;ship&#45;it</title>
<path fill="none" stroke="#60a5fa" d="M797.4,-697.21C804.76,-689.17 812.62,-679.04 817.25,-668.4 838.34,-619.98 842.25,-602.05 831.25,-550.4 820.11,-498.08 813.48,-480.76 774.25,-444.4 765.41,-436.21 755.26,-428.66 744.85,-421.88"/>
<polygon fill="#60a5fa" stroke="#60a5fa" points="746.85,-419 736.52,-416.67 743.14,-424.94 746.85,-419"/>
<text xml:space="preserve" text-anchor="middle" x="862.4" y="-552.9" font-family="Helvetica,sans-Serif" font-size="10.00" fill="#60a5fa">review_result</text>
</g>
<!-- push&#45;fix -->
<g id="node11" class="node">
<title>push&#45;fix</title>
<polygon fill="#1a1a2e" stroke="#333333" points="742.38,-521.4 598.12,-521.4 598.12,-485.4 742.38,-485.4 742.38,-521.4"/>
<text xml:space="preserve" text-anchor="start" x="644" y="-503.1" font-family="Helvetica,sans-Serif" font-weight="bold" font-size="14.00" fill="white">push&#45;fix</text>
<text xml:space="preserve" text-anchor="start" x="606.12" y="-492.9" font-family="Helvetica,sans-Serif" font-size="10.00" fill="#94a3b8">sleep 1printf &#39;{&quot;pushed&quot;: true}&#39;</text>
</g>
<!-- revise&#45;code&#45;&gt;push&#45;fix -->
<g id="edge21" class="edge">
<title>revise&#45;code&#45;&gt;push&#45;fix</title>
<path fill="none" stroke="#60a5fa" d="M670.25,-591.23C670.25,-575.42 670.25,-551.67 670.25,-533"/>
<polygon fill="#60a5fa" stroke="#60a5fa" points="673.75,-533.11 670.25,-523.11 666.75,-533.11 673.75,-533.11"/>
<text xml:space="preserve" text-anchor="middle" x="688.62" y="-552.9" font-family="Helvetica,sans-Serif" font-size="10.00" fill="#60a5fa">changes</text>
</g>
<!-- push&#45;fix&#45;&gt;await&#45;review -->
<g id="edge22" class="edge">
<title>push&#45;fix&#45;&gt;await&#45;review</title>
<path fill="none" stroke="#f59e0b" stroke-width="2.5" d="M742.71,-508.74C841.11,-515.38 1006.92,-529.54 1025.25,-550.4 1082.22,-615.23 958.24,-665.65 866.42,-692.62"/>
<polygon fill="#f59e0b" stroke="#f59e0b" stroke-width="2.5" points="865.45,-688.53 855.06,-695.86 867.75,-696.6 865.45,-688.53"/>
<text xml:space="preserve" text-anchor="middle" x="1062.48" y="-606.27" font-family="Helvetica,sans-Serif" font-size="10.00" fill="#f59e0b">↺ re&#45;review</text>
</g>
<!-- push&#45;fix&#45;&gt;ship&#45;it -->
<g id="edge27" class="edge">
<title>push&#45;fix&#45;&gt;ship&#45;it</title>
<path fill="none" stroke="#60a5fa" d="M670.25,-484.99C670.25,-469.77 670.25,-447.04 670.25,-427.03"/>
<polygon fill="#60a5fa" stroke="#60a5fa" points="673.75,-427.16 670.25,-417.16 666.75,-427.16 673.75,-427.16"/>
<text xml:space="preserve" text-anchor="middle" x="686" y="-446.9" font-family="Helvetica,sans-Serif" font-size="10.00" fill="#60a5fa">pushed</text>
</g>
<!-- ship&#45;it&#45;&gt;merge -->
<g id="edge29" class="edge">
<title>ship&#45;it&#45;&gt;merge</title>
<path fill="none" stroke="#60a5fa" d="M726.78,-350.93C762.8,-330.89 808.64,-305.37 841.19,-287.26"/>
<polygon fill="#60a5fa" stroke="#60a5fa" points="842.48,-290.54 849.51,-282.62 839.07,-284.43 842.48,-290.54"/>
<text xml:space="preserve" text-anchor="middle" x="813.24" y="-312.9" font-family="Helvetica,sans-Serif" font-size="10.00" fill="#60a5fa">decision</text>
</g>
<!-- ship&#45;it&#45;&gt;close&#45;pr -->
<g id="edge33" class="edge">
<title>ship&#45;it&#45;&gt;close&#45;pr</title>
<path fill="none" stroke="#60a5fa" d="M543.85,-350.93C459.33,-329.89 350.62,-302.83 277.47,-284.62"/>
<polygon fill="#60a5fa" stroke="#60a5fa" points="278.51,-281.27 267.96,-282.25 276.82,-288.06 278.51,-281.27"/>
<text xml:space="preserve" text-anchor="middle" x="437.04" y="-312.9" font-family="Helvetica,sans-Serif" font-size="10.00" fill="#60a5fa">decision</text>
</g>
<!-- merge&#45;&gt;deploy&#45;prod -->
<g id="edge30" class="edge">
<title>merge&#45;&gt;deploy&#45;prod</title>
<path fill="none" stroke="#60a5fa" d="M802.25,-246.49C705.81,-227.31 544.4,-195.22 445.32,-175.52"/>
<polygon fill="#60a5fa" stroke="#60a5fa" points="446.13,-172.11 435.64,-173.59 444.76,-178.97 446.13,-172.11"/>
<text xml:space="preserve" text-anchor="middle" x="649.56" y="-206.9" font-family="Helvetica,sans-Serif" font-size="10.00" fill="#60a5fa">action</text>
</g>
<!-- deploy&#45;prod&#45;&gt;__outputs__ -->
<g id="edge35" class="edge">
<title>deploy&#45;prod&#45;&gt;__outputs__</title>
<path fill="none" stroke="#065f46" stroke-dasharray="5,2" d="M333.46,-139.11C304.14,-119.44 255.84,-87.06 221.1,-63.77"/>
<polygon fill="#065f46" stroke="#065f46" points="223.21,-60.96 212.95,-58.3 219.31,-66.77 223.21,-60.96"/>
<text xml:space="preserve" text-anchor="middle" x="316.5" y="-100.9" font-family="Helvetica,sans-Serif" font-size="10.00" fill="#6ee7b7">status, pr_title</text>
</g>
<!-- close&#45;pr&#45;&gt;__outputs__ -->
<g id="edge36" class="edge">
<title>close&#45;pr&#45;&gt;__outputs__</title>
<path fill="none" stroke="#065f46" stroke-dasharray="5,2" d="M194.94,-244.99C192.34,-210.26 186.43,-131.42 182.65,-81.03"/>
<polygon fill="#065f46" stroke="#065f46" points="186.16,-81.03 181.92,-71.32 179.18,-81.55 186.16,-81.03"/>
<text xml:space="preserve" text-anchor="middle" x="220.84" y="-153.9" font-family="Helvetica,sans-Serif" font-size="10.00" fill="#6ee7b7">status, pr_title</text>
</g>
</g>
</svg>
